<svg width="31" height="19" viewBox="0 0 31 19" fill="none" xmlns="http://www.w3.org/2000/svg">
<g clip-path="url(#clip0_61_1422)">
<mask id="mask0_61_1422" style="mask-type:luminance" maskUnits="userSpaceOnUse" x="15" y="5" width="1" height="8">
<path d="M15.0704 5.36491H15.3592V12.793H15.0704V5.36491Z" fill="white"/>
</mask>
<g mask="url(#mask0_61_1422)">
<path d="M8.09958 2.52842L5.85387 0.57193L0.31601 6.59439L5.85387 12.6161L8.09958 10.6568L5.70249 8.09895H15.2818V5.08702H5.70249L8.09958 2.52842Z" fill="#5A00FE"/>
</g>
<mask id="mask1_61_1422" style="mask-type:luminance" maskUnits="userSpaceOnUse" x="15" y="6" width="16" height="13">
<path d="M15.2818 6.50526H30.2476V18.6358H15.2818V6.50526Z" fill="white"/>
</mask>
<g mask="url(#mask1_61_1422)">
<path d="M24.7097 6.59439L22.4647 8.55088L24.8611 11.1088H15.2818V14.1214H24.8611L22.4647 16.6793L24.7097 18.6358L30.2476 12.6161L24.7097 6.59439Z" fill="#5A00FE"/>
</g>
<mask id="mask2_61_1422" style="mask-type:luminance" maskUnits="userSpaceOnUse" x="0" y="0" width="16" height="13">
<path d="M0.178589 0.57193H15.2804V12.793H0.178589V0.57193Z" fill="white"/>
</mask>
<g mask="url(#mask2_61_1422)">
<path d="M8.09958 2.52842L5.85387 0.57193L0.31601 6.59439L5.85387 12.6161L8.09958 10.6568L5.70249 8.09895H15.2818V5.08702H5.70249L8.09958 2.52842Z" fill="#3CACDD"/>
</g>
</g>
<defs>
<clipPath id="clip0_61_1422">
<rect width="31" height="19" fill="white"/>
</clipPath>
</defs>
</svg>
