<svg width="131" height="64" viewBox="0 0 131 64" fill="none" xmlns="http://www.w3.org/2000/svg">
<path d="M21.0778 37.8462C21.0778 39.5045 21.2019 40.6603 21.4517 41.3129C21.7008 41.9641 22.2135 42.2898 22.9893 42.2898C23.7665 42.2898 24.2771 41.9557 24.5213 41.2876C24.7648 40.6196 24.8869 39.4729 24.8869 37.8462V24.6926C24.8869 23.3564 24.762 22.3817 24.5129 21.7676C24.2632 21.1522 23.7741 20.8441 23.0451 20.8441C22.3175 20.8441 21.8075 21.1522 21.5159 21.7676C21.2236 22.3817 21.0778 23.3522 21.0778 24.6785V37.8462ZM29.1788 37.7985C29.1788 40.5592 28.689 42.6182 27.7109 43.9768C26.7321 45.334 25.1666 46.0119 23.0144 46.0119C20.8615 46.0119 19.2834 45.3312 18.2788 43.9683C17.2742 42.6041 16.7719 40.548 16.7719 37.7985V24.8862C16.7719 19.7101 18.8711 17.122 23.0702 17.122C25.2392 17.122 26.7991 17.7803 27.75 19.0954C28.7023 20.4112 29.1788 22.3417 29.1788 24.8862V37.7985Z" fill="black"/>
<path d="M31.5691 45.6919V17.4589H41.1993V21.195H35.8414V28.7038H40.817V32.4568H35.8414V45.6919H31.5691Z" fill="black"/>
<path d="M50.56 45.6919L47.7052 37.0126L45.3919 45.6919H41.2618L45.5844 30.548L41.2786 17.4589H44.8812L47.6718 25.8491L49.9209 17.4589H53.9254L49.681 31.9122L54.2603 45.6919H50.56Z" fill="black"/>
<mask id="mask0_12_673" style="mask-type:luminance" maskUnits="userSpaceOnUse" x="15" y="47" width="1" height="8">
<path d="M15.0704 47.3649H15.3592V54.793H15.0704V47.3649Z" fill="white"/>
</mask>
<g mask="url(#mask0_12_673)">
<path d="M8.09961 44.5284L5.8539 42.5719L0.31604 48.5944L5.8539 54.6161L8.09961 52.6568L5.70252 50.0989H15.2818V47.087H5.70252L8.09961 44.5284Z" fill="#5A00FE"/>
</g>
<mask id="mask1_12_673" style="mask-type:luminance" maskUnits="userSpaceOnUse" x="15" y="48" width="16" height="13">
<path d="M15.2818 48.5053H30.2476V60.6358H15.2818V48.5053Z" fill="white"/>
</mask>
<g mask="url(#mask1_12_673)">
<path d="M24.7097 48.5944L22.4647 50.5509L24.8611 53.1088H15.2818V56.1214H24.8611L22.4647 58.6793L24.7097 60.6358L30.2476 54.6161L24.7097 48.5944Z" fill="#5A00FE"/>
</g>
<mask id="mask2_12_673" style="mask-type:luminance" maskUnits="userSpaceOnUse" x="0" y="42" width="16" height="13">
<path d="M0.178589 42.5719H15.2804V54.793H0.178589V42.5719Z" fill="white"/>
</mask>
<g mask="url(#mask2_12_673)">
<path d="M8.09959 44.5284L5.85389 42.5719L0.316025 48.5944L5.85389 54.6161L8.09959 52.6568L5.7025 50.0989H15.2818V47.087H5.7025L8.09959 44.5284Z" fill="#3CACDD"/>
</g>
<path d="M59.5841 45.7721C58.2279 45.7721 57.3098 45.37 56.8298 44.5651C56.3513 43.7588 56.1127 42.5918 56.1127 41.0647V36.6465C56.1127 34.6647 56.4559 33.3286 57.1424 32.6381C57.6907 32.0865 58.5195 31.81 59.6288 31.81C60.7373 31.81 61.5382 32.1482 62.0314 32.8233C62.5261 33.4991 62.7737 34.4732 62.7737 35.7454V37.2472H60.4604V35.664C60.4604 34.8353 60.3857 34.3153 60.2371 34.1033C60.0899 33.89 59.8416 33.7833 59.492 33.7833C59.1439 33.7833 58.8956 33.9419 58.747 34.2577C58.5998 34.5721 58.5265 35.0535 58.5265 35.7005V41.8451C58.5265 42.5188 58.5942 43.0142 58.7302 43.33C58.8656 43.6444 59.1293 43.8016 59.5199 43.8016C60.0557 43.7946 60.3599 43.4156 60.4325 42.6647C60.4506 42.4893 60.4604 42.283 60.4604 42.0472C60.4604 41.9854 60.4604 41.9223 60.4604 41.8563V40.2367H62.7737V41.6177C62.7737 42.9525 62.5261 43.9784 62.0314 44.697C61.5382 45.4142 60.7227 45.7721 59.5841 45.7721Z" fill="black"/>
<path d="M67.2004 43.8268C67.5743 43.8268 67.8282 43.6626 67.9622 43.3328C68.0975 43.0016 68.1659 42.5096 68.1659 41.8563V35.7567C68.1659 35.0886 68.0961 34.5882 67.9566 34.2549C67.8185 33.9223 67.5631 33.7553 67.1892 33.7553C66.8167 33.7553 66.5613 33.9209 66.4218 34.2521C66.2837 34.5819 66.2153 35.083 66.2153 35.7567V41.8563C66.2153 42.8556 66.3779 43.4675 66.7036 43.6921C66.8355 43.7819 67.0008 43.8268 67.2004 43.8268ZM67.2004 45.7721C65.9223 45.7721 65.0356 45.3875 64.541 44.6184C64.0477 43.8493 63.8015 42.7377 63.8015 41.2837V36.1833C63.8015 33.2682 64.9302 31.81 67.1892 31.81C69.4496 31.81 70.5797 33.2682 70.5797 36.1833V41.2837C70.5797 43.556 69.9979 44.9518 68.8356 45.4718C68.3891 45.6718 67.8436 45.7721 67.2004 45.7721Z" fill="black"/>
<path d="M76.5061 31.81C78.0723 31.81 78.8558 32.8318 78.8558 34.8753V45.6093H76.4615V35.0184C76.4615 34.6254 76.3722 34.3167 76.1936 34.0921C76.0164 33.8675 75.759 33.7553 75.4206 33.7553C75.0836 33.7553 74.8178 33.9012 74.6225 34.1932C74.4272 34.4837 74.3295 34.8739 74.3295 35.3637V45.6093H71.9324V31.9756H74.3295V33.5391C74.4481 33.0528 74.7069 32.643 75.1053 32.3096C75.5029 31.977 75.9703 31.81 76.5061 31.81Z" fill="black"/>
<path d="M81.4305 45.6093L79.4687 31.9756H81.7291L82.6053 39.2289L82.9039 42.4907H83.0825L83.3364 39.2177L84.0871 31.9756H86.3279L84.3662 45.6093H81.4305Z" fill="black"/>
<path d="M90.1853 45.7721C88.6617 45.7721 87.6794 45.1875 87.2385 44.0177C86.9608 43.2732 86.8227 42.2914 86.8227 41.0732V35.9925C86.8227 33.2044 87.9759 31.81 90.283 31.81C91.5122 31.81 92.3634 32.177 92.8364 32.9103C93.3087 33.6444 93.5452 34.6865 93.5452 36.0374V38.9567H89.2365V41.6374C89.2365 42.5826 89.3175 43.184 89.4793 43.4423C89.6426 43.6991 89.8867 43.8268 90.2104 43.8268C90.5355 43.8268 90.7469 43.751 90.8439 43.5995C91.0072 43.3342 91.1013 43.0619 91.1258 42.7826C91.1495 42.504 91.162 42.1223 91.162 41.6374V40.436H93.5284V41.163C93.5284 42.4002 93.4314 43.2893 93.2382 43.8296C93.0464 44.3686 92.8238 44.7588 92.5713 45.0002C92.0411 45.5153 91.2457 45.7721 90.1853 45.7721ZM89.2282 37.5475H91.162V35.8016C91.162 35.057 91.102 34.523 90.9834 34.1988C90.8662 33.8732 90.6269 33.7103 90.2663 33.7103C90.2607 33.7103 90.2579 33.7103 90.2579 33.7103C89.6307 33.7103 89.2931 34.1925 89.2449 35.156C89.2338 35.3377 89.2282 35.5742 89.2282 35.8661V37.5475Z" fill="black"/>
<path d="M99.564 31.81C99.5877 31.81 99.6003 32.3195 99.6003 33.337L99.5919 33.8479C99.1078 33.8479 98.6348 33.9307 98.1715 34.0949C97.7083 34.2577 97.4041 34.49 97.259 34.7911V45.6093H94.8452V31.9756H97.259V33.4914C97.4153 32.9581 97.6902 32.5447 98.085 32.2507C98.4792 31.9574 98.9724 31.81 99.564 31.81Z" fill="black"/>
<path d="M102.699 45.6991C101.854 45.6991 101.287 45.5377 100.997 45.2135C100.708 44.89 100.564 44.3279 100.564 43.5265V34.0023H99.4622V32.2563H100.564V29.6009H102.959V32.2563H104.279V34.0023H102.959V43.1082C102.959 43.4304 103.041 43.6374 103.207 43.7286C103.375 43.8184 103.746 43.8633 104.323 43.8633V45.6991H102.699Z" fill="black"/>
<path d="M108.39 45.7721C106.866 45.7721 105.884 45.1875 105.443 44.0177C105.165 43.2732 105.027 42.2914 105.027 41.0732V35.9925C105.027 33.2044 106.181 31.81 108.488 31.81C109.717 31.81 110.568 32.177 111.041 32.9103C111.513 33.6444 111.75 34.6865 111.75 36.0374V38.9567H107.441V41.6374C107.441 42.5826 107.522 43.184 107.684 43.4423C107.847 43.6991 108.091 43.8268 108.415 43.8268C108.74 43.8268 108.952 43.751 109.049 43.5995C109.212 43.3342 109.306 43.0619 109.33 42.7826C109.354 42.504 109.367 42.1223 109.367 41.6374V40.436H111.733V41.163C111.733 42.4002 111.636 43.2893 111.443 43.8296C111.251 44.3686 111.028 44.7588 110.776 45.0002C110.246 45.5153 109.45 45.7721 108.39 45.7721ZM107.433 37.5475H109.367V35.8016C109.367 35.057 109.307 34.523 109.188 34.1988C109.071 33.8732 108.832 33.7103 108.471 33.7103C108.465 33.7103 108.463 33.7103 108.463 33.7103C107.835 33.7103 107.498 34.1925 107.45 35.156C107.438 35.3377 107.433 35.5742 107.433 35.8661V37.5475Z" fill="black"/>
</svg>
