<svg width="128" height="128" viewBox="0 0 128 128" fill="none" xmlns="http://www.w3.org/2000/svg">
<mask id="mask0_51_3554" style="mask-type:alpha" maskUnits="userSpaceOnUse" x="0" y="0" width="128" height="128">
<rect width="128" height="128" fill="#D9D9D9"/>
</mask>
<g mask="url(#mask0_51_3554)">
<path d="M37.3333 48H90.6667V37.3333H37.3333V48ZM37.3333 69.3333H62.6667C64.4444 67.2 66.3778 65.2222 68.4667 63.4C70.5556 61.5778 72.8444 60 75.3333 58.6667H37.3333V69.3333ZM37.3333 90.6667H53.6C53.7778 88.8 54.1111 86.9778 54.6 85.2C55.0889 83.4222 55.6889 81.6889 56.4 80H37.3333V90.6667ZM26.6667 112C23.7333 112 21.2222 110.956 19.1333 108.867C17.0444 106.778 16 104.267 16 101.333V26.6667C16 23.7333 17.0444 21.2222 19.1333 19.1333C21.2222 17.0444 23.7333 16 26.6667 16H101.333C104.267 16 106.778 17.0444 108.867 19.1333C110.956 21.2222 112 23.7333 112 26.6667V56.4C110.311 55.6889 108.578 55.0889 106.8 54.6C105.022 54.1111 103.2 53.7778 101.333 53.6V26.6667H26.6667V101.333H53.6C53.7778 103.2 54.1111 105.022 54.6 106.8C55.0889 108.578 55.6889 110.311 56.4 112H26.6667ZM96 122.667C89.5111 122.667 83.8444 120.644 79 116.6C74.1556 112.556 71.1111 107.467 69.8667 101.333H78.1333C79.2889 105.244 81.4889 108.444 84.7333 110.933C87.9778 113.422 91.7333 114.667 96 114.667C101.156 114.667 105.556 112.844 109.2 109.2C112.844 105.556 114.667 101.156 114.667 96C114.667 90.8444 112.844 86.4444 109.2 82.8C105.556 79.1556 101.156 77.3333 96 77.3333C93.4222 77.3333 91.0222 77.8 88.8 78.7333C86.5778 79.6667 84.6222 80.9778 82.9333 82.6667H90.6667V90.6667H69.3333V69.3333H77.3333V76.9333C79.7333 74.6222 82.5333 72.7778 85.7333 71.4C88.9333 70.0222 92.3556 69.3333 96 69.3333C103.378 69.3333 109.667 71.9333 114.867 77.1333C120.067 82.3333 122.667 88.6222 122.667 96C122.667 103.378 120.067 109.667 114.867 114.867C109.667 120.067 103.378 122.667 96 122.667Z" fill="#A2DBF8"/>
</g>
</svg>
